<?xml version='1.0' encoding='utf-8'?>
<svg xmlns="http://www.w3.org/2000/svg" width="392" height="50" viewBox="0 0 392 50" role="img" aria-labelledby="title"><title id="title">KILYADEV.RU &gt;</title><defs><linearGradient id="bg" x1="0" x2="1" y1="0" y2="1"><stop stop-color="#101c24" /><stop offset="0.7" stop-color="#080f14" /><stop offset="1" stop-color="#0c1b22" /></linearGradient><linearGradient id="art" x1="0" y1="0" x2="1" y2="1"><stop stop-color="#172a35" /><stop offset="1" stop-color="#071218" /></linearGradient></defs><rect x="1" y="1" width="390" height="48" fill="#ff414d" stroke="#a5dce5" stroke-width="1.3" /><path d="M4 4H388" stroke="#ff9b9e" stroke-width="0.7" /><g transform="translate(14 13) scale(0.71875)"><circle cx="16" cy="16" r="13" fill="none" stroke="#eeeadd" stroke-width="1.5" /><path d="M16 3C6 10 6 22 16 29M16 3C26 10 26 22 16 29M3 16H29M6 9H26M6 23H26" fill="none" stroke="#eeeadd" stroke-width="1.2" /></g><g fill="#eeeadd" aria-label="KILYADEV.RU &gt;"><path d="M137 1493H340V829L971 1493H1208L627 883L1225 0H981L494 748L340 584V0H137Z" transform="translate(145.7700 31.0760) scale(0.0083008 -0.0083008)" /><path d="M201 1493H1030V1323H717V170H1030V0H201V170H514V1323H201Z" transform="translate(156.0049 31.0760) scale(0.0083008 -0.0083008)" /><path d="M215 1493H418V170H1139V0H215Z" transform="translate(166.2397 31.0760) scale(0.0083008 -0.0083008)" /><path d="M37 1493H252L616 834L979 1493H1196L717 670V0H514V670Z" transform="translate(176.4746 31.0760) scale(0.0083008 -0.0083008)" /><path d="M616 1315 403 551H829ZM494 1493H739L1196 0H987L877 389H354L246 0H37Z" transform="translate(186.7095 31.0760) scale(0.0083008 -0.0083008)" /><path d="M436 166Q691 166 792.0 291.5Q893 417 893 745Q893 1076 792.5 1201.5Q692 1327 436 1327H340V166ZM440 1493Q782 1493 944.0 1311.0Q1106 1129 1106 745Q1106 363 944.0 181.5Q782 0 440 0H137V1493Z" transform="translate(196.9443 31.0760) scale(0.0083008 -0.0083008)" /><path d="M197 1493H1083V1323H399V881H1053V711H399V170H1102V0H197Z" transform="translate(207.1792 31.0760) scale(0.0083008 -0.0083008)" /><path d="M616 170 967 1493H1176L739 0H494L57 1493H266Z" transform="translate(217.4140 31.0760) scale(0.0083008 -0.0083008)" /><path d="M489 305H741V0H489Z" transform="translate(227.6489 31.0760) scale(0.0083008 -0.0083008)" /><path d="M760 705Q838 685 893.0 629.5Q948 574 1030 408L1233 0H1016L838 377Q761 538 699.5 584.5Q638 631 539 631H346V0H143V1493H559Q805 1493 936.0 1382.0Q1067 1271 1067 1061Q1067 913 986.5 819.5Q906 726 760 705ZM346 1327V797H567Q712 797 783.0 862.0Q854 927 854 1061Q854 1190 778.5 1258.5Q703 1327 559 1327Z" transform="translate(237.8838 31.0760) scale(0.0083008 -0.0083008)" /><path d="M147 573V1493H350V481Q350 372 356.0 325.5Q362 279 377 254Q409 195 469.5 165.0Q530 135 616 135Q703 135 763.0 165.0Q823 195 856 254Q871 279 877.0 325.0Q883 371 883 479V1493H1085V573Q1085 344 1056.5 247.5Q1028 151 958 88Q892 29 807.0 0.0Q722 -29 616 -29Q511 -29 426.0 0.0Q341 29 274 88Q205 150 176.0 248.5Q147 347 147 573Z" transform="translate(248.1186 31.0760) scale(0.0083008 -0.0083008)" /><path d="M88 961V1143L1145 725V559L88 141V324L938 641Z" transform="translate(268.5884 31.0760) scale(0.0083008 -0.0083008)" /></g></svg>